<?xml version="1.0" encoding="UTF-8" standalone="no"?>
<!DOCTYPE svg PUBLIC "-//W3C//DTD SVG 1.1//EN" "http://www.w3.org/Graphics/SVG/1.1/DTD/svg11.dtd">
<svg xmlns="http://www.w3.org/2000/svg" version="1.1" viewBox="0.00 0.00 82.00 68.00">
<g stroke-width="2.00" fill="none" stroke-linecap="butt">
<path stroke="#686868" vector-effect="non-scaling-stroke" d="
  M 60.30 17.45
  C 55.44 17.30 50.98 15.46 47.50 12.08
  C 46.05 10.68 43.93 10.71 42.45 12.06
  Q 37.18 16.87 29.85 17.41
  Q 24.35 17.82 24.02 22.79
  C 23.36 32.86 24.41 44.29 31.71 51.39
  Q 36.83 56.38 44.41 58.85
  Q 45.32 59.14 46.24 58.82
  C 55.77 55.52 62.82 49.16 64.77 38.97
  Q 66.68 29.00 65.87 21.69
  C 65.58 19.04 62.75 17.52 60.30 17.45"
/>
<path stroke="#686868" vector-effect="non-scaling-stroke" d="
  M 60.67 20.47
  C 54.86 20.22 49.71 18.39 45.49 14.33
  Q 45.13 13.98 44.75 14.31
  Q 37.65 20.49 28.99 20.55
  A 1.94 1.93 -88.6 0 0 27.07 22.38
  Q 26.71 29.15 27.61 35.40
  Q 28.72 43.06 32.09 47.36
  Q 36.80 53.37 44.54 55.88
  Q 45.03 56.04 45.52 55.87
  Q 52.91 53.41 57.34 48.01
  Q 60.95 43.62 62.10 35.76
  Q 63.15 28.65 62.65 22.38
  A 2.08 2.08 0.0 0 0 60.67 20.47"
/>
<path stroke="#686868" vector-effect="non-scaling-stroke" d="
  M 42.82 38.68
  L 38.48 34.44
  Q 37.68 33.67 36.80 34.35
  L 36.51 34.58
  Q 35.25 35.57 36.38 36.71
  L 42.36 42.72
  Q 43.60 43.96 44.65 42.56
  L 53.63 30.60
  Q 54.59 29.32 53.25 28.46
  L 53.04 28.32
  A 1.23 1.23 0.0 0 0 51.40 28.61
  L 43.83 38.60
  Q 43.37 39.22 42.82 38.68"
/>
</g>
<path fill="#0e0e0e" d="
  M 0.00 0.00
  L 82.00 0.00
  L 82.00 68.00
  L 0.00 68.00
  L 0.00 0.00
  Z
  M 60.30 17.45
  C 55.44 17.30 50.98 15.46 47.50 12.08
  C 46.05 10.68 43.93 10.71 42.45 12.06
  Q 37.18 16.87 29.85 17.41
  Q 24.35 17.82 24.02 22.79
  C 23.36 32.86 24.41 44.29 31.71 51.39
  Q 36.83 56.38 44.41 58.85
  Q 45.32 59.14 46.24 58.82
  C 55.77 55.52 62.82 49.16 64.77 38.97
  Q 66.68 29.00 65.87 21.69
  C 65.58 19.04 62.75 17.52 60.30 17.45
  Z"
/>
<path fill="#c2c2c2" d="
  M 47.50 12.08
  C 50.98 15.46 55.44 17.30 60.30 17.45
  C 62.75 17.52 65.58 19.04 65.87 21.69
  Q 66.68 29.00 64.77 38.97
  C 62.82 49.16 55.77 55.52 46.24 58.82
  Q 45.32 59.14 44.41 58.85
  Q 36.83 56.38 31.71 51.39
  C 24.41 44.29 23.36 32.86 24.02 22.79
  Q 24.35 17.82 29.85 17.41
  Q 37.18 16.87 42.45 12.06
  C 43.93 10.71 46.05 10.68 47.50 12.08
  Z
  M 60.67 20.47
  C 54.86 20.22 49.71 18.39 45.49 14.33
  Q 45.13 13.98 44.75 14.31
  Q 37.65 20.49 28.99 20.55
  A 1.94 1.93 -88.6 0 0 27.07 22.38
  Q 26.71 29.15 27.61 35.40
  Q 28.72 43.06 32.09 47.36
  Q 36.80 53.37 44.54 55.88
  Q 45.03 56.04 45.52 55.87
  Q 52.91 53.41 57.34 48.01
  Q 60.95 43.62 62.10 35.76
  Q 63.15 28.65 62.65 22.38
  A 2.08 2.08 0.0 0 0 60.67 20.47
  Z"
/>
<path fill="#0e0e0e" d="
  M 45.49 14.33
  C 49.71 18.39 54.86 20.22 60.67 20.47
  A 2.08 2.08 0.0 0 1 62.65 22.38
  Q 63.15 28.65 62.10 35.76
  Q 60.95 43.62 57.34 48.01
  Q 52.91 53.41 45.52 55.87
  Q 45.03 56.04 44.54 55.88
  Q 36.80 53.37 32.09 47.36
  Q 28.72 43.06 27.61 35.40
  Q 26.71 29.15 27.07 22.38
  A 1.94 1.93 -88.6 0 1 28.99 20.55
  Q 37.65 20.49 44.75 14.31
  Q 45.13 13.98 45.49 14.33
  Z
  M 42.82 38.68
  L 38.48 34.44
  Q 37.68 33.67 36.80 34.35
  L 36.51 34.58
  Q 35.25 35.57 36.38 36.71
  L 42.36 42.72
  Q 43.60 43.96 44.65 42.56
  L 53.63 30.60
  Q 54.59 29.32 53.25 28.46
  L 53.04 28.32
  A 1.23 1.23 0.0 0 0 51.40 28.61
  L 43.83 38.60
  Q 43.37 39.22 42.82 38.68
  Z"
/>
<path fill="#c2c2c2" d="
  M 43.83 38.60
  L 51.40 28.61
  A 1.23 1.23 0.0 0 1 53.04 28.32
  L 53.25 28.46
  Q 54.59 29.32 53.63 30.60
  L 44.65 42.56
  Q 43.60 43.96 42.36 42.72
  L 36.38 36.71
  Q 35.25 35.57 36.51 34.58
  L 36.80 34.35
  Q 37.68 33.67 38.48 34.44
  L 42.82 38.68
  Q 43.37 39.22 43.83 38.60
  Z"
/>
</svg>
